<svg xmlns="http://www.w3.org/2000/svg" xmlns:xlink="http://www.w3.org/1999/xlink" width="144" height="139" viewBox="0 0 144 139">
    <defs>
        <path id="a" d="M54 99.846c28.719 0 54-8.352 54-37.316C108 33.566 88.719 0 54 0S0 33.566 0 62.53s25.281 37.316 54 37.316z"/>
        <radialGradient id="c" cx="51.202%" cy="46.882%" r="54.532%" fx="51.202%" fy="46.882%" gradientTransform="matrix(0 .99152 -1 0 .98 -.039)">
            <stop offset="0%"/>
            <stop offset="75.335%"/>
            <stop offset="91.866%" stop-color="#303032"/>
            <stop offset="100%"/>
        </radialGradient>
        <path id="d" d="M61.5 26.222c2.564 0 6.5-1.468 6.5-2.796C68 18.109 64.993 0 61.5 0S55 19.072 55 23.426c0 1.328 3.936 2.796 6.5 2.796z"/>
        <path id="e" d="M2.536 7.364l8.893-.799a1 1 0 0 0 .546-.224l7.06-5.813a1 1 0 0 1 1.284.011l7.73 6.603a.5.5 0 0 0 .524.078l3.876-1.682a1 1 0 0 1 .478-.08l9.474.754a.6.6 0 0 1 .063 1.188l-7.322 1.372a1 1 0 0 0-.33.126l-7.003 4.21a1 1 0 0 1-1.105-.049l-6.743-4.92a.5.5 0 0 0-.568-.014l-4.58 2.99a1 1 0 0 1-.775.137L2.453 8.546a.6.6 0 0 1 .083-1.182z"/>
    </defs>
    <g fill="none" fill-rule="evenodd">
        <g transform="translate(18 28.154)">
            <mask id="b" fill="#fff">
                <use xlink:href="#a"/>
            </mask>
            <use fill="#3B79EB" xlink:href="#a"/>
            <path stroke="#121E2F" stroke-width="4" d="M54 101.846c-35.068 0-56-12.057-56-39.316 0-15.325 5.193-31.28 14.39-43.34C22.644 5.746 37.038-2 54-2s31.356 7.745 41.61 21.19C104.807 31.25 110 47.206 110 62.53c0 27.259-20.932 39.316-56 39.316z"/>
            <path fill="#0F49B3" d="M-1.19 59.49a68.172 68.172 0 0 0-.082 3.321c0 29.647 25.877 38.195 55.272 38.195s55.272-8.548 55.272-38.195c0-1.1-.027-2.208-.081-3.32C107.584 86.857 82.439 94.858 54 94.858c-28.439 0-53.584-8.001-55.19-35.367z" mask="url(#b)"/>
        </g>
        <g transform="translate(24 45.3)">
            <path fill="#0F49B3" d="M15.033 34.795A34.138 34.138 0 0 0 15 36.308c0 18.38 14.775 33.282 33 33.282s33-14.901 33-33.282c0-.507-.011-1.012-.033-1.513-.785 17.679-15.244 31.77-32.967 31.77s-32.182-14.091-32.967-31.77z"/>
            <ellipse cx="48" cy="33.282" fill="#FFF" rx="33" ry="33.282"/>
            <ellipse cx="85.924" cy="55.837" fill="#E78F7F" rx="8.5" ry="4.538" style="mix-blend-mode:screen" transform="rotate(-6 85.924 55.837)"/>
            <ellipse cx="10.924" cy="55.837" fill="#F38E82" rx="8.5" ry="4.538" style="mix-blend-mode:screen" transform="scale(-1 1) rotate(-6 0 264.276)"/>
            <ellipse cx="48" cy="32.274" fill="url(#c)" rx="22" ry="22.188"/>
            <ellipse cx="48" cy="32.274" fill="#2E396B" rx="13" ry="13.111"/>
            <ellipse cx="56.5" cy="21.684" fill="#FFF" rx="4.5" ry="4.538"/>
            <ellipse cx="39.5" cy="37.821" fill="#FED24A" fill-opacity=".3" rx="8.5" ry="8.573"/>
        </g>
        <g transform="translate(38 19.077)">
            <path fill="#0F49B3" d="M54.005 23.197c-.128 3.63 2.264 5.49 7.175 5.577 5.107.09 7.701-1.77 7.783-5.577H54.005zM14.958 23.197c.127 3.63-2.264 5.49-7.175 5.577-5.107.09-7.701-1.77-7.783-5.577h14.958z"/>
            <path fill="#FED24A" stroke="#222100" stroke-width="2" d="M7.5 26.222c-2.564 0-6.5-1.468-6.5-2.796C1 18.109 4.007 0 7.5 0S14 19.072 14 23.426c0 1.328-3.936 2.796-6.5 2.796z"/>
            <use fill="#FED24A" stroke="#222100" stroke-width="2" xlink:href="#d"/>
        </g>
        <g transform="translate(50 8)">
            <mask id="f" fill="#fff">
                <use xlink:href="#e"/>
            </mask>
            <use fill="#FED24A" transform="matrix(-1 0 0 1 44.942 0)" xlink:href="#e"/>
            <path fill="#FED24A" d="M1.746 6.637l9.423 1.056 5.878 2.746 8.29-5.908L31.9 8.866l11.373-.88.643.88-14.04 3.928-12.828 1.139-9.965-1.139C3.584 10.913 1.806 9.941 1.746 9.88c-.06-.062-.555-.79-1.484-2.187l1.484-1.056z" mask="url(#f)" style="mix-blend-mode:multiply"/>
        </g>
    </g>
</svg>
