<svg xmlns="http://www.w3.org/2000/svg" xmlns:xlink="http://www.w3.org/1999/xlink" width="144" height="139" viewBox="0 0 144 139">
    <defs>
        <path id="a" d="M54 99.846c28.719 0 54-8.352 54-37.316C108 33.566 88.719 0 54 0S0 33.566 0 62.53s25.281 37.316 54 37.316z"/>
        <radialGradient id="c" cx="51.202%" cy="46.882%" r="54.532%" fx="51.202%" fy="46.882%" gradientTransform="matrix(0 .99152 -1 0 .98 -.039)">
            <stop offset="0%"/>
            <stop offset="75.335%"/>
            <stop offset="91.866%" stop-color="#303032"/>
            <stop offset="100%"/>
        </radialGradient>
        <path id="d" d="M61.5 26.222c2.564 0 6.5-1.468 6.5-2.796C68 18.109 64.993 0 61.5 0S55 19.072 55 23.426c0 1.328 3.936 2.796 6.5 2.796z"/>
        <path id="e" d="M38.536 7.364l8.893-.799a1 1 0 0 0 .546-.224l7.06-5.813a1 1 0 0 1 1.284.011l7.73 6.603a.5.5 0 0 0 .524.078l3.876-1.682a1 1 0 0 1 .478-.08l9.474.754a.6.6 0 0 1 .063 1.188l-7.322 1.372a1 1 0 0 0-.33.126l-7.003 4.21a1 1 0 0 1-1.105-.049l-6.743-4.92a.5.5 0 0 0-.568-.014l-4.58 2.99a1 1 0 0 1-.775.137L38.453 8.546a.6.6 0 0 1 .083-1.182z"/>
    </defs>
    <g fill="none" fill-rule="evenodd" transform="translate(14 8)">
        <path fill="#121E2F" fill-rule="nonzero" d="M58 120c28.719 0 54-8.352 54-37.316 0-28.965-19.281-62.53-54-62.53S4 53.719 4 82.684C4 111.648 29.281 120 58 120zm0 4c-16.333 0-29.818-2.6-39.766-8.33C6.407 108.857 0 97.82 0 82.684c0-15.756 5.332-32.137 14.8-44.552C25.418 24.208 40.388 16.154 58 16.154c17.612 0 32.582 8.054 43.2 21.978 9.468 12.415 14.8 28.796 14.8 44.552 0 15.136-6.407 26.173-18.234 32.986C87.818 121.4 74.333 124 58 124z"/>
        <g transform="translate(4 20.154)">
            <mask id="b" fill="#fff">
                <use xlink:href="#a"/>
            </mask>
            <use fill="#3B79EB" xlink:href="#a"/>
            <path fill="#0F49B3" d="M-1.19 59.49a68.172 68.172 0 0 0-.082 3.321c0 29.647 25.877 38.195 55.272 38.195s55.272-8.548 55.272-38.195c0-1.1-.027-2.208-.081-3.32C107.584 86.857 82.439 94.858 54 94.858c-28.439 0-53.584-8.001-55.19-35.367z" mask="url(#b)"/>
        </g>
        <g transform="translate(10 37.3)">
            <path fill="#0F49B3" d="M15.033 34.795A34.138 34.138 0 0 0 15 36.308c0 18.38 14.775 33.282 33 33.282s33-14.901 33-33.282c0-.507-.011-1.012-.033-1.513-.785 17.679-15.244 31.77-32.967 31.77s-32.182-14.091-32.967-31.77z"/>
            <ellipse cx="48" cy="33.282" fill="#FFF" rx="33" ry="33.282"/>
            <ellipse cx="85.924" cy="55.837" fill="#E78F7F" rx="8.5" ry="4.538" style="mix-blend-mode:screen" transform="rotate(-6 85.924 55.837)"/>
            <ellipse cx="10.924" cy="55.837" fill="#F38E82" rx="8.5" ry="4.538" style="mix-blend-mode:screen" transform="scale(-1 1) rotate(-6 0 264.276)"/>
            <ellipse cx="48" cy="32.274" fill="url(#c)" rx="22" ry="22.188"/>
            <ellipse cx="48" cy="32.274" fill="#2E396B" rx="13" ry="13.111"/>
            <ellipse cx="56.5" cy="21.684" fill="#FFF" rx="4.5" ry="4.538"/>
            <ellipse cx="39.5" cy="37.821" fill="#FED24A" fill-opacity=".3" rx="8.5" ry="8.573"/>
        </g>
        <g transform="translate(24 11.077)">
            <path fill="#0F49B3" d="M54.005 23.197c-.128 3.63 2.264 5.49 7.175 5.577 5.107.09 7.701-1.77 7.783-5.577H54.005zM14.958 23.197c.127 3.63-2.264 5.49-7.175 5.577-5.107.09-7.701-1.77-7.783-5.577h14.958z"/>
            <path fill="#FED24A" stroke="#222100" stroke-width="2" d="M7.5 26.222c-2.564 0-6.5-1.468-6.5-2.796C1 18.109 4.007 0 7.5 0S14 19.072 14 23.426c0 1.328-3.936 2.796-6.5 2.796z"/>
            <use fill="#FED24A" stroke="#222100" stroke-width="2" xlink:href="#d"/>
        </g>
        <use fill="#FED24A" transform="matrix(-1 0 0 1 116.942 0)" xlink:href="#e"/>
        <path fill="#FFA800" d="M78.951 8.011a.6.6 0 0 1-.462.535l-11.585 2.706a1 1 0 0 1-.774-.136l-4.58-2.991a.5.5 0 0 0-.568.015l-6.744 4.92a1 1 0 0 1-1.104.048l-7.003-4.21a1 1 0 0 0-.33-.126L38.478 7.4a.6.6 0 0 1-.472-.734l9.162 1.027 5.878 2.746 8.29-5.908L67.9 8.866l11.052-.855z"/>
    </g>
</svg>
