<?xml version="1.0" encoding="UTF-8" standalone="no"?>
<svg width="176px" height="27px" viewBox="0 0 176 27" version="1.1" xmlns="http://www.w3.org/2000/svg" xmlns:xlink="http://www.w3.org/1999/xlink">
    <!-- Generator: Sketch 49 (51002) - http://www.bohemiancoding.com/sketch -->
    <title>logo</title>
    <desc>Created with Sketch.</desc>
    <defs></defs>
    <g id="Page-1" stroke="none" stroke-width="1" fill="none" fill-rule="evenodd">
        <g id="首页" transform="translate(-595.000000, -407.000000)">
            <g id="logo" transform="translate(595.000000, 407.000000)">
                <path d="M11.5,20.92 L16.94,7.52 L22.62,7.52 L14.22,27 L8.46,27 L0.7,7.52 L6.54,7.52 L11.5,20.92 Z M41.42,15.16 L41.42,19.32 L30.14,19.32 C30.2466672,20.6000064 30.6599964,21.506664 31.38,22.04 C32.1000036,22.573336 33.2733252,22.84 34.9,22.84 L41.42,22.84 L41.42,27 L34.3,27 C32.7533256,27 31.4933382,26.8600014 30.52,26.58 C29.5466618,26.2999986 28.6333376,25.8400032 27.78,25.2 C25.4066548,23.3599908 24.22,20.6266848 24.22,17 C24.22,14.6533216 24.8466604,12.6000088 26.1,10.84 C26.9533376,9.639994 27.979994,8.7866692 29.18,8.28 C30.380006,7.7733308 31.9533236,7.52 33.9,7.52 L41.42,7.52 L41.42,11.68 L34.3,11.68 C32.833326,11.68 31.8066696,11.9266642 31.22,12.42 C30.6333304,12.9133358 30.273334,13.82666 30.14,15.16 L41.42,15.16 Z M71.38,7.52 L71.38,11.68 L64.98,11.68 C62.8199892,11.68 61.3266708,12.1599952 60.5,13.12 C59.699996,14.0266712 59.3,15.413324 59.3,17.28 C59.3,19.3600104 59.9533268,20.8799952 61.26,21.84 C61.793336,22.2133352 62.3733302,22.4733326 63,22.62 C63.6266698,22.7666674 64.4999944,22.84 65.62,22.84 L71.38,22.84 L71.38,27 L64.06,27 C62.0866568,27 60.5266724,26.800002 59.38,26.4 C58.2333276,25.999998 57.2200044,25.3066716 56.34,24.32 C54.6599916,22.453324 53.82,20.0800144 53.82,17.2 C53.82,13.733316 54.81999,11.1466752 56.82,9.44 C57.620004,8.7466632 58.5799944,8.2533348 59.7,7.96 C60.8200056,7.6666652 62.2733244,7.52 64.06,7.52 L71.38,7.52 Z M80.82,0.32 L80.82,7.52 L86.3,7.52 C87.9266748,7.52 89.1999954,7.6466654 90.12,7.9 C91.0400046,8.1533346 91.8199968,8.5999968 92.46,9.24 C93.6866728,10.3600056 94.3,12.2399868 94.3,14.88 L94.3,27 L88.94,27 L88.94,15.92 C88.94,14.8799948 88.8933338,14.1400022 88.8,13.7 C88.7066662,13.2599978 88.5133348,12.8800016 88.22,12.56 C87.686664,11.9999972 86.6733408,11.7066668 85.18,11.68 L80.82,11.68 L80.82,27 L75.46,27 L75.46,0.32 L80.82,0.32 Z M112.74,15.16 C112.74,13.7999932 112.466669,12.8800024 111.92,12.4 C111.373331,11.9199976 110.286675,11.68 108.66,11.68 L99.62,11.68 L99.62,7.52 L108.66,7.52 C110.286675,7.52 111.406664,7.553333 112.02,7.62 C112.633336,7.686667 113.259997,7.8133324 113.9,8 C116.860015,9.1200056 118.260001,11.7999788 118.1,16.04 L118.1,27 L106.82,27 C104.793323,27 103.393337,26.9400006 102.62,26.82 C101.846663,26.6999994 101.16667,26.4533352 100.58,26.08 C99.0066588,25.013328 98.22,23.4000108 98.22,21.24 C98.22,19.9333268 98.5333302,18.7666718 99.16,17.74 C99.7866698,16.7133282 100.619995,16.0133352 101.66,15.64 C102.566671,15.3199984 104.073323,15.16 106.18,15.16 L112.74,15.16 Z M112.74,19.32 L105.66,19.32 C105.046664,19.32 104.560002,19.4799984 104.2,19.8 C103.839998,20.1200016 103.66,20.5599972 103.66,21.12 C103.66,21.7333364 103.879998,22.173332 104.32,22.44 C104.760002,22.706668 105.513328,22.84 106.58,22.84 L112.74,22.84 L112.74,19.32 Z M123.1,7.52 L131.02,7.52 C132.646675,7.52 133.906662,7.6333322 134.8,7.86 C135.693338,8.0866678 136.43333,8.466664 137.02,9 C137.60667,9.533336 138.019999,10.199996 138.26,11 C138.500001,11.800004 138.62,12.9466592 138.62,14.44 L138.62,16.32 L133.46,16.32 L133.46,15.28 C133.46,13.8933264 133.220002,12.9466692 132.74,12.44 C132.259998,11.9333308 131.340007,11.68 129.98,11.68 L128.46,11.68 L128.46,27 L123.1,27 L123.1,7.52 Z M143.26,7.52 L143.26,0.32 L148.62,0.32 L148.62,7.52 L153.58,7.52 L153.58,11.68 L148.62,11.68 L148.62,18.76 C148.62,20.4133416 148.766665,21.4533312 149.06,21.88 C149.513336,22.5200032 150.313328,22.84 151.46,22.84 L153.58,22.84 L153.58,27 L149.7,27 C147.379988,27 145.726672,26.4400056 144.74,25.32 C143.753328,24.1999944 143.26,22.3200132 143.26,19.68 L143.26,11.68 L139.86,11.68 L139.86,7.52 L143.26,7.52 Z M174.14,7.52 L174.14,11.68 L164.66,11.68 C163.566661,11.68 162.873335,11.7333328 162.58,11.84 C161.966664,12.0533344 161.66,12.5733292 161.66,13.4 C161.66,14.0933368 161.95333,14.6266648 162.54,15 C162.860002,15.2133344 163.72666,15.32 165.14,15.32 L168.3,15.32 C170.326677,15.32 171.926661,15.7466624 173.1,16.6 C174.406673,17.5600048 175.06,18.973324 175.06,20.84 C175.06,22.2533404 174.660004,23.5466608 173.86,24.72 C173.27333,25.653338 172.560004,26.2666652 171.72,26.56 C170.879996,26.8533348 169.473343,27 167.5,27 L156.42,27 L156.42,22.84 L165.98,22.84 C167.153339,22.84 167.953331,22.8266668 168.38,22.8 C169.340005,22.6933328 169.82,22.1466716 169.82,21.16 C169.82,20.359996 169.500003,19.8133348 168.86,19.52 C168.539998,19.3599992 167.766673,19.28 166.54,19.28 L163.3,19.28 C162.019994,19.28 161.040003,19.2000008 160.36,19.04 C159.679997,18.8799992 159.04667,18.5866688 158.46,18.16 C157.739996,17.6533308 157.173335,16.9533378 156.76,16.06 C156.346665,15.1666622 156.14,14.2133384 156.14,13.2 C156.14,11.2533236 156.84666,9.7066724 158.26,8.56 C159.113338,7.8666632 160.593323,7.52 162.7,7.52 L174.14,7.52 Z" id="ve-charts-copy" fill="#FFFFFF"></path>
                <polygon id="Path" fill="#FED24A" points="52.5 14.28 52.5 19.08 43.18 19.08 43.18 14.28"></polygon>
            </g>
        </g>
    </g>
</svg>