<?xml version="1.0" encoding="UTF-8" standalone="no"?>
<svg width="79px" height="13px" viewBox="0 0 79 13" version="1.1" xmlns="http://www.w3.org/2000/svg" xmlns:xlink="http://www.w3.org/1999/xlink">
    <!-- Generator: Sketch 49 (51002) - http://www.bohemiancoding.com/sketch -->
    <title>logo蓝</title>
    <desc>Created with Sketch.</desc>
    <defs></defs>
    <g id="Page-1" stroke="none" stroke-width="1" fill="none" fill-rule="evenodd">
        <g id="内页" transform="translate(-80.000000, -129.000000)">
            <g id="侧边导航">
                <g id="logo" transform="translate(80.000000, 34.000000)">
                    <text id="ve-charts" font-size="18" font-weight="normal">
                        <tspan x="0" y="93" fill="#0F49B3">ve</tspan>
                        <tspan x="19.224" y="93" fill="#FED24A">-</tspan>
                        <tspan x="23.418" y="93" fill="#0F49B3">charts</tspan>
                    </text>
                    <g id="logo蓝" transform="translate(0.000000, 95.000000)">
                        <path d="M4.968,10.264 L7.416,4.234 L9.972,4.234 L6.192,13 L3.6,13 L0.108,4.234 L2.736,4.234 L4.968,10.264 Z M18.432,7.672 L18.432,9.544 L13.356,9.544 C13.4040002,10.1200029 13.5899984,10.5279988 13.914,10.768 C14.2380016,11.0080012 14.7659963,11.128 15.498,11.128 L18.432,11.128 L18.432,13 L15.228,13 C14.5319965,13 13.9650022,12.9370006 13.527,12.811 C13.0889978,12.6849994 12.6780019,12.4780014 12.294,12.19 C11.2259947,11.3619959 10.692,10.1320082 10.692,8.5 C10.692,7.44399472 10.9739972,6.52000396 11.538,5.728 C11.9220019,5.1879973 12.3839973,4.80400114 12.924,4.576 C13.4640027,4.34799886 14.1719956,4.234 15.048,4.234 L18.432,4.234 L18.432,6.106 L15.228,6.106 C14.5679967,6.106 14.1060013,6.21699889 13.842,6.439 C13.5779987,6.66100111 13.4160003,7.071997 13.356,7.672 L18.432,7.672 Z M31.914,4.234 L31.914,6.106 L29.034,6.106 C28.0619951,6.106 27.3900019,6.32199784 27.018,6.754 C26.6579982,7.16200204 26.478,7.7859958 26.478,8.626 C26.478,9.56200468 26.7719971,10.2459978 27.36,10.678 C27.6000012,10.8460008 27.8609986,10.9629997 28.143,11.029 C28.4250014,11.0950003 28.8179975,11.128 29.322,11.128 L31.914,11.128 L31.914,13 L28.62,13 C27.7319956,13 27.0300026,12.9100009 26.514,12.73 C25.9979974,12.5499991 25.542002,12.2380022 25.146,11.794 C24.3899962,10.9539958 24.012,9.88600648 24.012,8.59 C24.012,7.0299922 24.4619955,5.86600384 25.362,5.098 C25.7220018,4.78599844 26.1539975,4.56400066 26.658,4.432 C27.1620025,4.29999934 27.815996,4.234 28.62,4.234 L31.914,4.234 Z M36.162,0.994 L36.162,4.234 L38.628,4.234 C39.3600037,4.234 39.9329979,4.29099943 40.347,4.405 C40.7610021,4.51900057 41.1119986,4.71999856 41.4,5.008 C41.9520028,5.51200252 42.228,6.35799406 42.228,7.546 L42.228,13 L39.816,13 L39.816,8.014 C39.816,7.54599766 39.7950002,7.21300099 39.753,7.015 C39.7109998,6.81699901 39.6240007,6.64600072 39.492,6.502 C39.2519988,6.24999874 38.7960034,6.11800006 38.124,6.106 L36.162,6.106 L36.162,13 L33.75,13 L33.75,0.994 L36.162,0.994 Z M50.526,7.672 C50.526,7.05999694 50.4030012,6.64600108 50.157,6.43 C49.9109988,6.21399892 49.4220037,6.106 48.69,6.106 L44.622,6.106 L44.622,4.234 L48.69,4.234 C49.4220037,4.234 49.9259986,4.24899985 50.202,4.279 C50.4780014,4.30900015 50.7599986,4.36599958 51.048,4.45 C52.3800067,4.95400252 53.0100004,6.15999046 52.938,8.068 L52.938,13 L47.862,13 C46.9499954,13 46.3200017,12.9730003 45.972,12.919 C45.6239983,12.8649997 45.3180013,12.7540008 45.054,12.586 C44.3459965,12.1059976 43.992,11.3800049 43.992,10.408 C43.992,9.81999706 44.1329986,9.29500231 44.415,8.833 C44.6970014,8.37099769 45.0719977,8.05600084 45.54,7.888 C45.948002,7.74399928 46.6259953,7.672 47.574,7.672 L50.526,7.672 Z M50.526,9.544 L47.34,9.544 C47.0639986,9.544 46.8450008,9.61599928 46.683,9.76 C46.5209992,9.90400072 46.44,10.1019987 46.44,10.354 C46.44,10.6300014 46.538999,10.8279994 46.737,10.948 C46.935001,11.0680006 47.2739976,11.128 47.754,11.128 L50.526,11.128 L50.526,9.544 Z M55.188,4.234 L58.752,4.234 C59.4840037,4.234 60.050998,4.28499949 60.453,4.387 C60.855002,4.48900051 61.1879987,4.6599988 61.452,4.9 C61.7160013,5.1400012 61.9019995,5.4399982 62.01,5.8 C62.1180005,6.1600018 62.172,6.67599664 62.172,7.348 L62.172,8.194 L59.85,8.194 L59.85,7.726 C59.85,7.10199688 59.7420011,6.67600114 59.526,6.448 C59.3099989,6.21999886 58.8960031,6.106 58.284,6.106 L57.6,6.106 L57.6,13 L55.188,13 L55.188,4.234 Z M64.26,4.234 L64.26,0.994 L66.672,0.994 L66.672,4.234 L68.904,4.234 L68.904,6.106 L66.672,6.106 L66.672,9.292 C66.672,10.0360037 66.7379993,10.503999 66.87,10.696 C67.074001,10.9840014 67.4339974,11.128 67.95,11.128 L68.904,11.128 L68.904,13 L67.158,13 C66.1139948,13 65.3700022,12.7480025 64.926,12.244 C64.4819978,11.7399975 64.26,10.8940059 64.26,9.706 L64.26,6.106 L62.73,6.106 L62.73,4.234 L64.26,4.234 Z M78.156,4.234 L78.156,6.106 L73.89,6.106 C73.3979975,6.106 73.0860007,6.12999976 72.954,6.178 C72.6779986,6.27400048 72.54,6.50799814 72.54,6.88 C72.54,7.19200156 72.6719987,7.43199916 72.936,7.6 C73.0800007,7.69600048 73.4699968,7.744 74.106,7.744 L75.528,7.744 C76.4400046,7.744 77.1599974,7.93599808 77.688,8.32 C78.2760029,8.75200216 78.57,9.3879958 78.57,10.228 C78.57,10.8640032 78.3900018,11.4459974 78.03,11.974 C77.7659987,12.3940021 77.4450019,12.6699993 77.067,12.802 C76.6889981,12.9340007 76.0560044,13 75.168,13 L70.182,13 L70.182,11.128 L74.484,11.128 C75.0120026,11.128 75.371999,11.1220001 75.564,11.11 C75.9960022,11.0619998 76.212,10.8160022 76.212,10.372 C76.212,10.0119982 76.0680014,9.76600066 75.78,9.634 C75.6359993,9.56199964 75.2880028,9.526 74.736,9.526 L73.278,9.526 C72.7019971,9.526 72.2610015,9.49000036 71.955,9.418 C71.6489985,9.34599964 71.3640013,9.21400096 71.1,9.022 C70.7759984,8.79399886 70.5210009,8.47900201 70.335,8.077 C70.1489991,7.67499799 70.056,7.24600228 70.056,6.79 C70.056,5.91399562 70.3739968,5.21800258 71.01,4.702 C71.3940019,4.38999844 72.0599953,4.234 73.008,4.234 L78.156,4.234 Z" id="ve-charts-copy" fill="#0F49B3"></path>
                        <polygon id="Path" fill="#FED24A" points="23.418 7.276 23.418 9.436 19.224 9.436 19.224 7.276"></polygon>
                    </g>
                </g>
            </g>
        </g>
    </g>
</svg>