<?xml version="1.0" encoding="UTF-8" standalone="no"?>
<svg width="24px" height="24px" viewBox="0 0 24 24" version="1.1" xmlns="http://www.w3.org/2000/svg" xmlns:xlink="http://www.w3.org/1999/xlink">
    <!-- Generator: sketchtool 46.2 (44496) - http://www.bohemiancoding.com/sketch -->
    <title>959CE4DA-C16D-4046-B058-BD43352FB94E</title>
    <desc>Created with sketchtool.</desc>
    <defs></defs>
    <g id="Page-1" stroke="none" stroke-width="1" fill="none" fill-rule="evenodd">
        <g id="icon" transform="translate(-245.000000, -295.000000)" fill="#7285A1">
            <g id="搜索icon" transform="translate(245.000000, 295.000000)">
                <rect id="Rectangle-6" transform="translate(17.828427, 16.828427) rotate(-319.000000) translate(-17.828427, -16.828427) " x="14.8284271" y="15.8284271" width="6" height="2" rx="1"></rect>
                <path d="M11,17 C14.3137085,17 17,14.3137085 17,11 C17,7.6862915 14.3137085,5 11,5 C7.6862915,5 5,7.6862915 5,11 C5,14.3137085 7.6862915,17 11,17 Z M11,19 C6.581722,19 3,15.418278 3,11 C3,6.581722 6.581722,3 11,3 C15.418278,3 19,6.581722 19,11 C19,15.418278 15.418278,19 11,19 Z" id="Oval-9" fill-rule="nonzero"></path>
                <circle id="Oval-10" cx="9.5" cy="9.5" r="1.5"></circle>
            </g>
        </g>
    </g>
</svg>